<?xml version="1.0" encoding="UTF-8" standalone="no"?>
<!DOCTYPE svg PUBLIC "-//W3C//DTD SVG 1.1//EN"
 "http://www.w3.org/Graphics/SVG/1.1/DTD/svg11.dtd">
<!-- Generated by graphviz version 2.36.0 (20140111.2315)
 -->
<!-- Title: G Pages: 1 -->
<svg width="480pt" height="510pt"
 viewBox="0.00 0.00 480.00 510.00" xmlns="http://www.w3.org/2000/svg" xmlns:xlink="http://www.w3.org/1999/xlink">
<g id="graph0" class="graph" transform="scale(1 1) rotate(0) translate(4 506)">
<title>G</title>
<polygon fill="white" stroke="none" points="-4,4 -4,-506 476,-506 476,4 -4,4"/>
<g id="clust1" class="cluster"><title>cluster_Global</title>
<path fill="none" stroke="gray" d="M360,-8C360,-8 452,-8 452,-8 458,-8 464,-14 464,-20 464,-20 464,-482 464,-482 464,-488 458,-494 452,-494 452,-494 360,-494 360,-494 354,-494 348,-488 348,-482 348,-482 348,-20 348,-20 348,-14 354,-8 360,-8"/>
<text text-anchor="middle" x="406" y="-481.2" font-family="Times,serif" font-size="11.00" fill="gray">Global</text>
</g>
<g id="clust2" class="cluster"><title>cluster_\App</title>
<path fill="none" stroke="gray" d="M368,-16C368,-16 444,-16 444,-16 450,-16 456,-22 456,-28 456,-28 456,-454 456,-454 456,-460 450,-466 444,-466 444,-466 368,-466 368,-466 362,-466 356,-460 356,-454 356,-454 356,-28 356,-28 356,-22 362,-16 368,-16"/>
<text text-anchor="middle" x="406" y="-453.2" font-family="Times,serif" font-size="11.00" fill="gray">App</text>
</g>
<!-- \\App\\Slide -->
<g id="node1" class="node"><title>\\App\\Slide</title>
<polygon fill="none" stroke="black" points="433,-438 379,-438 379,-402 433,-402 433,-438"/>
<text text-anchor="middle" x="406" y="-417.2" font-family="Courier,monospace" font-size="11.00">Slide</text>
</g>
<!-- \\App\\Form -->
<g id="node2" class="node"><title>\\App\\Form</title>
<polygon fill="none" stroke="black" points="433,-384 379,-384 379,-348 433,-348 433,-384"/>
<text text-anchor="middle" x="406" y="-363.2" font-family="Courier,monospace" font-size="11.00">Form</text>
</g>
<!-- \\App\\Database -->
<g id="node3" class="node"><title>\\App\\Database</title>
<polygon fill="none" stroke="black" points="441.5,-330 370.5,-330 370.5,-294 441.5,-294 441.5,-330"/>
<text text-anchor="middle" x="406" y="-309.2" font-family="Courier,monospace" font-size="11.00">Database</text>
</g>
<!-- \\App\\User -->
<g id="node4" class="node"><title>\\App\\User</title>
<polygon fill="none" stroke="black" points="433,-276 379,-276 379,-240 433,-240 433,-276"/>
<text text-anchor="middle" x="406" y="-255.2" font-family="Courier,monospace" font-size="11.00">User</text>
</g>
<!-- \\App\\File -->
<g id="node5" class="node"><title>\\App\\File</title>
<polygon fill="none" stroke="black" points="433,-222 379,-222 379,-186 433,-186 433,-222"/>
<text text-anchor="middle" x="406" y="-201.2" font-family="Courier,monospace" font-size="11.00">File</text>
</g>
<!-- \\App\\WebSocket -->
<g id="node6" class="node"><title>\\App\\WebSocket</title>
<polygon fill="none" stroke="black" points="444.5,-168 367.5,-168 367.5,-132 444.5,-132 444.5,-168"/>
<text text-anchor="middle" x="406" y="-147.2" font-family="Courier,monospace" font-size="11.00">WebSocket</text>
</g>
<!-- \\Ratchet\\MessageComponentInterface -->
<g id="node9" class="node"><title>\\Ratchet\\MessageComponentInterface</title>
<ellipse fill="none" stroke="black" cx="146" cy="-150" rx="146.474" ry="18"/>
<text text-anchor="middle" x="146" y="-146.3" font-family="Times,serif" font-size="14.00" fill="gray">\Ratchet\MessageComponentInterface</text>
</g>
<!-- \\App\\WebSocket&#45;&gt;\\Ratchet\\MessageComponentInterface -->
<g id="edge1" class="edge"><title>\\App\\WebSocket&#45;&gt;\\Ratchet\\MessageComponentInterface</title>
<path fill="none" stroke="black" stroke-dasharray="1,5" d="M367.485,-150C349.489,-150 326.601,-150 302.418,-150"/>
<polygon fill="none" stroke="black" points="302.359,-146.5 292.359,-150 302.359,-153.5 302.359,-146.5"/>
</g>
<!-- \\App\\Controller -->
<g id="node7" class="node"><title>\\App\\Controller</title>
<polygon fill="none" stroke="black" points="448,-114 364,-114 364,-78 448,-78 448,-114"/>
<text text-anchor="middle" x="406" y="-93.2" font-family="Courier,monospace" font-size="11.00">Controller</text>
</g>
<!-- \\App\\Sqlite -->
<g id="node8" class="node"><title>\\App\\Sqlite</title>
<polygon fill="none" stroke="black" points="434.5,-60 377.5,-60 377.5,-24 434.5,-24 434.5,-60"/>
<text text-anchor="middle" x="406" y="-39.2" font-family="Courier,monospace" font-size="11.00">Sqlite</text>
</g>
</g>
</svg>
